<svg xmlns="http://www.w3.org/2000/svg" viewBox="0 0 64 64" role="img" aria-label="Terra Sentinel">
  <rect width="64" height="64" rx="10" fill="#263c34"/>
  <path d="M32 9 50 16v14c0 12.7-7.5 20.9-18 25-10.5-4.1-18-12.3-18-25V16l18-7Z" fill="#e8efe2"/>
  <path d="M32 16 44 21v9c0 8.1-4.9 13.9-12 17-7.1-3.1-12-8.9-12-17v-9l12-5Z" fill="#2f7d62"/>
  <path d="M32 24a8 8 0 1 0 0 16 8 8 0 0 0 0-16Zm0 4a4 4 0 1 1 0 8 4 4 0 0 1 0-8Z" fill="#fff"/>
  <path d="M32 11v9M32 44v8M13 31h9M42 31h9" stroke="#d39a16" stroke-width="3" stroke-linecap="round"/>
</svg>
